<?xml version="1.0" standalone="no"?>
<!DOCTYPE svg PUBLIC "-//W3C//DTD SVG 1.1//EN" "http://www.w3.org/Graphics/SVG/1.1/DTD/svg11.dtd">
<svg width="100%" height="100%" viewBox="0 0 100 100" version="1.1" xmlns="http://www.w3.org/2000/svg" xmlns:xlink="http://www.w3.org/1999/xlink" xml:space="preserve" style="fill-rule:evenodd;clip-rule:evenodd;stroke-linejoin:round;stroke-miterlimit:1.41421;">
    <g transform="matrix(0.0401046,0,0,0.0401046,0.112759,0.152864)">
        <circle cx="1240" cy="1239" r="1237" style="fill:white;"/>
    </g>
    <g transform="matrix(0.079905,0,0,0.079905,-49.5593,-41.3291)">
        <g transform="matrix(0.570665,0,0,0.570665,584.872,810.681)">
            <path d="M1158.44,605.685L1167.33,781.997L1126.94,782.435L789.189,227.685L726.189,61.435L717.439,61.435L741.939,243.435L741.939,1067.68L605.439,1067.68L605.439,-157.315L713.939,-157.315L1097.19,469.185L1154.94,605.685L1158.44,605.685Z" style="fill:rgb(35,31,32);fill-rule:nonzero;"/>
        </g>
        <g transform="matrix(0.570665,0,0,0.570665,587.316,810.179)">
            <path d="M1546.94,245.185L1564.44,61.435L1555.69,61.435L1489.19,229.435L1170.69,782.435L1154.25,781.997L1154.94,605.685L1158.44,605.685L1212.69,465.685L1578.44,-157.315L1692.19,-157.315L1692.19,1067.68L1546.94,1067.68L1546.94,245.185Z" style="fill:url(#_Linear1);fill-rule:nonzero;"/>
        </g>
        <g transform="matrix(1.17291,0,0,1.17291,920.429,1539.79)">
            <path d="M72.684,-54.833L73.85,-67.084L73.267,-67.084L68.834,-55.883L47.6,-19.017L44.683,-19.017L22.167,-56L17.967,-67.084L17.383,-67.084L19.017,-54.95L19.017,0L9.917,0L9.917,-81.667L17.15,-81.667L42.7,-39.9L46.55,-30.8L46.783,-30.8L50.4,-40.133L74.784,-81.667L82.367,-81.667L82.367,0L72.684,0L72.684,-54.833Z" style="fill:rgb(35,31,32);fill-rule:nonzero;"/>
            <path d="M141.05,-22.633L110.95,-22.633L102.784,0L93.217,0L124.134,-82.95L128.567,-82.95L159.6,0L149.45,0L141.05,-22.633ZM114.1,-31.033L138.134,-31.033L129.034,-55.883L126.117,-68.25L126,-68.25L123.084,-55.65L114.1,-31.033Z" style="fill:rgb(35,31,32);fill-rule:nonzero;"/>
            <path d="M185.151,-53.433L178.851,-65.217L178.384,-65.217L179.551,-53.433L179.551,0L170.45,0L170.45,-82.95L175.584,-82.95L214.667,-28.467L220.734,-17.267L221.317,-17.267L220.034,-28.467L220.034,-81.667L229.134,-81.667L229.134,1.283L224.001,1.283L185.151,-53.433Z" style="fill:rgb(35,31,32);fill-rule:nonzero;"/>
            <rect x="251.184" y="-81.667" width="9.683" height="81.667" style="fill:rgb(35,31,32);fill-rule:nonzero;"/>
            <path d="M282.917,-81.667L327.368,-81.667L327.368,-73.034L292.601,-73.034L292.601,-45.15L325.034,-45.15L325.034,-36.517L292.601,-36.517L292.601,0L282.917,0L282.917,-81.667Z" style="fill:rgb(35,31,32);fill-rule:nonzero;"/>
            <path d="M339.851,-40.833C339.851,-54.445 342.729,-64.886 348.484,-72.159C354.24,-79.431 362.445,-83.067 373.101,-83.067C378.857,-83.067 383.834,-82.056 388.034,-80.034C392.234,-78.011 395.715,-75.153 398.476,-71.459C401.237,-67.764 403.279,-63.331 404.601,-58.158C405.923,-52.986 406.584,-47.211 406.584,-40.833C406.584,-27.222 403.687,-16.781 397.893,-9.508C392.098,-2.236 383.834,1.4 373.101,1.4C367.423,1.4 362.504,0.389 358.343,-1.633C354.182,-3.656 350.72,-6.514 347.959,-10.208C345.198,-13.903 343.157,-18.336 341.834,-23.508C340.512,-28.681 339.851,-34.456 339.851,-40.833ZM350.118,-40.833C350.118,-36.322 350.565,-32.045 351.459,-28C352.354,-23.956 353.734,-20.397 355.601,-17.325C357.468,-14.253 359.859,-11.803 362.776,-9.975C365.693,-8.147 369.134,-7.233 373.101,-7.233C380.334,-7.233 386.012,-9.975 390.134,-15.458C394.257,-20.942 396.318,-29.4 396.318,-40.833C396.318,-45.267 395.871,-49.525 394.976,-53.608C394.082,-57.692 392.682,-61.27 390.776,-64.342C388.871,-67.414 386.459,-69.864 383.543,-71.692C380.626,-73.52 377.146,-74.434 373.101,-74.434C365.945,-74.434 360.326,-71.692 356.243,-66.209C352.159,-60.725 350.118,-52.267 350.118,-40.833Z" style="fill:rgb(35,31,32);fill-rule:nonzero;"/>
            <path d="M471.335,0L423.035,0L423.035,-81.667L432.718,-81.667L432.718,-8.633L471.335,-8.633L471.335,0Z" style="fill:rgb(35,31,32);fill-rule:nonzero;"/>
            <path d="M483.351,-81.667C484.829,-81.9 486.482,-82.075 488.31,-82.192C490.138,-82.309 492.043,-82.386 494.026,-82.425C496.01,-82.464 497.954,-82.503 499.86,-82.542C501.765,-82.581 503.535,-82.6 505.168,-82.6C511.701,-82.6 517.36,-81.589 522.143,-79.567C526.927,-77.545 530.874,-74.725 533.985,-71.109C537.096,-67.492 539.41,-63.156 540.927,-58.1C542.443,-53.045 543.202,-47.483 543.202,-41.417C543.202,-35.895 542.482,-30.586 541.043,-25.492C539.604,-20.397 537.329,-15.886 534.218,-11.958C531.107,-8.031 527.063,-4.881 522.085,-2.508C517.107,-0.136 511.079,1.05 504.001,1.05C502.757,1.05 501.143,1.031 499.16,0.992C497.176,0.953 495.135,0.875 493.035,0.758C490.935,0.642 488.99,0.544 487.201,0.467C485.412,0.389 484.129,0.272 483.351,0.117L483.351,-81.667ZM505.401,-73.967C504.39,-73.967 503.282,-73.967 502.076,-73.967C500.871,-73.967 499.685,-73.928 498.518,-73.85C497.351,-73.772 496.282,-73.695 495.31,-73.617C494.338,-73.539 493.579,-73.461 493.035,-73.384L493.035,-8.05C493.424,-7.972 494.163,-7.914 495.251,-7.875C496.34,-7.836 497.468,-7.797 498.635,-7.758C499.801,-7.719 500.929,-7.681 502.018,-7.642C503.107,-7.603 503.846,-7.583 504.235,-7.583C509.679,-7.583 514.249,-8.517 517.943,-10.383C521.638,-12.25 524.593,-14.758 526.81,-17.908C529.027,-21.058 530.602,-24.675 531.535,-28.758C532.468,-32.842 532.935,-37.061 532.935,-41.417C532.935,-45.228 532.507,-49.058 531.652,-52.908C530.796,-56.758 529.318,-60.239 527.218,-63.35C525.118,-66.461 522.299,-69.009 518.76,-70.992C515.221,-72.975 510.768,-73.967 505.401,-73.967Z" style="fill:rgb(35,31,32);fill-rule:nonzero;"/>
        </g>
    </g>
    <defs>
        <linearGradient id="_Linear1" x1="0" y1="0" x2="1" y2="0" gradientUnits="userSpaceOnUse" gradientTransform="matrix(537.938,0,-0,537.938,1154.25,455.185)"><stop offset="0%" style="stop-color:rgb(124,124,124);stop-opacity:1"/><stop offset="100%" style="stop-color:rgb(35,31,32);stop-opacity:1"/></linearGradient>
    </defs>
</svg>
