<?xml version="1.0" standalone="no"?>
<!DOCTYPE svg PUBLIC "-//W3C//DTD SVG 20010904//EN"
 "http://www.w3.org/TR/2001/REC-SVG-20010904/DTD/svg10.dtd">
<svg version="1.0" xmlns="http://www.w3.org/2000/svg"
 width="700.000000pt" height="700.000000pt" viewBox="0 0 700.000000 700.000000"
 preserveAspectRatio="xMidYMid meet">
<metadata>
Created by potrace 1.11, written by Peter Selinger 2001-2013
</metadata>
<g transform="translate(0.000000,700.000000) scale(0.100000,-0.100000)"
fill="#000000" stroke="none">
<path d="M3417 6984 c-1 -1 -60 -5 -132 -8 -71 -4 -143 -9 -160 -11 -181 -25
-268 -39 -347 -56 -51 -11 -104 -22 -118 -25 -59 -11 -334 -99 -440 -141 -336
-133 -722 -362 -965 -574 -215 -188 -391 -374 -542 -574 -60 -80 -203 -291
-203 -301 0 -2 -20 -37 -44 -77 -24 -39 -66 -119 -94 -177 -43 -90 -63 -135
-122 -275 -15 -36 -34 -90 -36 -100 -1 -5 -16 -52 -33 -103 -36 -105 -95 -342
-105 -416 -4 -27 -9 -52 -11 -55 -1 -3 -6 -31 -9 -61 -4 -30 -9 -66 -11 -80
-30 -178 -36 -600 -10 -794 1 -12 6 -48 9 -81 29 -252 111 -572 213 -830 46
-116 158 -357 193 -415 5 -8 31 -51 57 -95 323 -548 835 -1028 1403 -1315 115
-59 222 -108 273 -126 20 -7 52 -20 70 -28 31 -14 226 -78 337 -109 30 -9 109
-27 175 -41 106 -21 162 -31 295 -51 188 -28 687 -28 851 0 13 2 58 9 99 14
352 49 764 183 1075 349 168 90 180 97 330 197 277 185 468 355 731 650 87 98
273 364 356 510 150 263 306 648 353 873 2 9 11 49 20 87 9 39 18 79 20 90 2
11 9 47 14 80 37 212 46 328 46 590 0 229 -5 321 -24 465 -13 96 -40 251 -47
270 -3 8 -10 38 -15 65 -24 127 -127 436 -204 610 -31 70 -123 255 -135 270
-4 6 -22 37 -40 69 -152 276 -407 590 -685 842 -474 430 -1132 746 -1745 840
-25 3 -54 8 -65 10 -90 14 -191 24 -296 29 -139 7 -279 12 -282 9z m1784
-1123 c16 -1 17 -146 15 -1953 l-1 -1953 -231 -1 -231 -1 2 1356 c1 746 5
1367 8 1381 3 14 9 63 12 110 4 47 9 101 11 120 2 19 6 62 9 95 3 33 7 79 10
102 3 23 1 44 -4 47 -17 11 -16 13 -166 -369 -65 -164 -89 -209 -330 -625 -40
-69 -82 -141 -92 -160 -11 -19 -46 -80 -78 -135 -168 -291 -250 -434 -268
-465 -22 -39 -105 -184 -124 -215 -7 -11 -17 -29 -22 -40 -6 -11 -46 -81 -89
-155 l-80 -135 -77 0 -78 0 -123 200 c-68 110 -127 206 -130 214 -9 17 -370
613 -381 627 -4 5 -14 21 -22 35 -44 74 -296 488 -312 511 -11 14 -19 28 -19
31 0 3 -21 41 -48 84 -26 43 -53 94 -60 113 -76 214 -180 473 -190 477 -21 8
-23 0 -13 -58 9 -50 16 -99 27 -189 2 -19 6 -46 9 -60 2 -14 7 -52 11 -85 3
-33 9 -69 12 -80 4 -11 8 -631 9 -1377 l3 -1358 -217 0 -218 0 0 1953 0 1952
177 3 c154 2 178 0 178 -13 0 -8 5 -15 10 -15 6 0 10 -4 10 -9 0 -12 63 -115
73 -119 4 -2 7 -8 7 -12 0 -8 74 -130 440 -725 146 -239 404 -661 414 -680 6
-11 13 -22 16 -25 3 -3 43 -68 90 -145 46 -77 98 -162 116 -190 17 -27 74
-149 125 -270 51 -121 98 -223 104 -227 13 -9 19 -2 34 42 7 19 17 44 22 55 4
11 36 92 69 180 34 88 79 189 99 225 21 36 91 155 156 265 65 110 128 218 140
240 13 22 64 109 114 193 50 85 91 155 91 157 0 2 23 41 50 87 28 46 55 90 59
98 133 228 492 838 515 875 12 19 23 20 177 19 90 -1 171 -2 180 -3z"/>
</g>
</svg>
